<svg id="visual" viewBox="0 0 900 600" width="900" height="600" xmlns="http://www.w3.org/2000/svg" xmlns:xlink="http://www.w3.org/1999/xlink" version="1.1"><path d="M0 437L75 457L150 458L225 429L300 428L375 462L450 419L525 435L600 433L675 451L750 417L825 461L900 457L900 601L825 601L750 601L675 601L600 601L525 601L450 601L375 601L300 601L225 601L150 601L75 601L0 601Z" fill="#fde047"></path><path d="M0 449L75 458L150 441L225 468L300 468L375 439L450 478L525 462L600 440L675 447L750 456L825 475L900 481L900 601L825 601L750 601L675 601L600 601L525 601L450 601L375 601L300 601L225 601L150 601L75 601L0 601Z" fill="#f6d33e"></path><path d="M0 481L75 469L150 473L225 463L300 474L375 467L450 471L525 485L600 465L675 489L750 487L825 475L900 476L900 601L825 601L750 601L675 601L600 601L525 601L450 601L375 601L300 601L225 601L150 601L75 601L0 601Z" fill="#f0c734"></path><path d="M0 508L75 490L150 509L225 491L300 512L375 499L450 486L525 489L600 497L675 500L750 480L825 481L900 498L900 601L825 601L750 601L675 601L600 601L525 601L450 601L375 601L300 601L225 601L150 601L75 601L0 601Z" fill="#e9ba2b"></path><path d="M0 520L75 529L150 506L225 525L300 530L375 511L450 526L525 513L600 519L675 518L750 512L825 527L900 506L900 601L825 601L750 601L675 601L600 601L525 601L450 601L375 601L300 601L225 601L150 601L75 601L0 601Z" fill="#e1ae23"></path><path d="M0 539L75 545L150 524L225 540L300 536L375 536L450 534L525 533L600 542L675 527L750 539L825 544L900 546L900 601L825 601L750 601L675 601L600 601L525 601L450 601L375 601L300 601L225 601L150 601L75 601L0 601Z" fill="#daa219"></path><path d="M0 547L75 545L150 551L225 544L300 557L375 562L450 552L525 553L600 558L675 553L750 551L825 564L900 547L900 601L825 601L750 601L675 601L600 601L525 601L450 601L375 601L300 601L225 601L150 601L75 601L0 601Z" fill="#d29610"></path><path d="M0 569L75 580L150 568L225 575L300 565L375 570L450 580L525 566L600 566L675 576L750 573L825 569L900 570L900 601L825 601L750 601L675 601L600 601L525 601L450 601L375 601L300 601L225 601L150 601L75 601L0 601Z" fill="#ca8a04"></path></svg>