<svg id="visual" viewBox="0 0 900 600" width="900" height="600" xmlns="http://www.w3.org/2000/svg" xmlns:xlink="http://www.w3.org/1999/xlink" version="1.1"><rect x="0" y="0" width="900" height="600" fill="#ffffff"></rect><path d="M0 536L16.7 542.7C33.3 549.3 66.7 562.7 100 570.3C133.3 578 166.7 580 200 566.5C233.3 553 266.7 524 300 521.8C333.3 519.7 366.7 544.3 400 554.8C433.3 565.3 466.7 561.7 500 550.2C533.3 538.7 566.7 519.3 600 513.7C633.3 508 666.7 516 700 520.5C733.3 525 766.7 526 800 522C833.3 518 866.7 509 883.3 504.5L900 500L900 601L883.3 601C866.7 601 833.3 601 800 601C766.7 601 733.3 601 700 601C666.7 601 633.3 601 600 601C566.7 601 533.3 601 500 601C466.7 601 433.3 601 400 601C366.7 601 333.3 601 300 601C266.7 601 233.3 601 200 601C166.7 601 133.3 601 100 601C66.7 601 33.3 601 16.7 601L0 601Z" fill="#eab308" stroke-linecap="round" stroke-linejoin="miter"></path></svg>