<?xml version="1.0" encoding="UTF-8" standalone="no"?>
<svg
   id="visual"
   viewBox="0 0 900 600"
   width="900"
   height="600"
   version="1.1"
   sodipodi:docname="polygon-scatter-haikei.svg"
   xmlns:inkscape="http://www.inkscape.org/namespaces/inkscape"
   xmlns:sodipodi="http://sodipodi.sourceforge.net/DTD/sodipodi-0.dtd"
   xmlns="http://www.w3.org/2000/svg"
   xmlns:svg="http://www.w3.org/2000/svg">
  <defs
     id="defs341" />
  <sodipodi:namedview
     id="namedview339"
     pagecolor="#ffffff"
     bordercolor="#000000"
     borderopacity="0.25"
     inkscape:showpageshadow="2"
     inkscape:pageopacity="0.0"
     inkscape:pagecheckerboard="0"
     inkscape:deskcolor="#d1d1d1"
     showgrid="false" />
  <rect
     width="900"
     height="600"
     fill="#ffffff"
     id="rect2"
     x="0"
     y="0" />
  <g
     id="g336">
    <g
       transform="translate(317,556)"
       id="g10">
      <path
         d="M 0,-19 19,0 0,19 -19,0 Z"
         fill="#eab308"
         id="path8" />
    </g>
    <g
       transform="translate(785,222)"
       id="g14">
      <path
         d="M 0,-27 27,0 0,27 -27,0 Z"
         fill="#eab308"
         id="path12" />
    </g>
    <g
       transform="translate(818,506)"
       id="g18">
      <path
         d="M 0,-29 29,0 0,29 -29,0 Z"
         fill="#eab308"
         id="path16" />
    </g>
    <g
       transform="translate(448,523)"
       id="g38">
      <path
         d="M 0,-33 33,0 0,33 -33,0 Z"
         fill="#eab308"
         id="path36" />
    </g>
    <g
       transform="translate(547,580)"
       id="g90">
      <path
         d="M 0,-32 32,0 0,32 -32,0 Z"
         fill="#eab308"
         id="path88" />
    </g>
    <g
       transform="translate(875,367)"
       id="g94">
      <path
         d="M 0,-24 24,0 0,24 -24,0 Z"
         fill="#eab308"
         id="path92" />
    </g>
    <g
       transform="translate(857,298)"
       id="g122">
      <path
         d="M 0,-29 29,0 0,29 -29,0 Z"
         fill="#eab308"
         id="path120" />
    </g>
    <g
       transform="translate(811,436)"
       id="g126">
      <path
         d="M 0,-31 31,0 0,31 -31,0 Z"
         fill="#eab308"
         id="path124" />
    </g>
    <g
       transform="translate(608,493)"
       id="g130">
      <path
         d="M 0,-23 23,0 0,23 -23,0 Z"
         fill="#eab308"
         id="path128" />
    </g>
    <g
       transform="translate(726,331)"
       id="g146">
      <path
         d="M 0,-17 17,0 0,17 -17,0 Z"
         fill="#eab308"
         id="path144" />
    </g>
    <g
       transform="translate(808,591)"
       id="g150">
      <path
         d="M 0,-22 22,0 0,22 -22,0 Z"
         fill="#eab308"
         id="path148" />
    </g>
    <g
       transform="translate(898,494)"
       id="g154">
      <path
         d="M 0,-27 27,0 0,27 -27,0 Z"
         fill="#eab308"
         id="path152" />
    </g>
    <g
       transform="translate(541,446)"
       id="g166">
      <path
         d="M 0,-19 19,0 0,19 -19,0 Z"
         fill="#eab308"
         id="path164" />
    </g>
    <g
       transform="translate(677,491)"
       id="g174">
      <path
         d="M 0,-28 28,0 0,28 -28,0 Z"
         fill="#eab308"
         id="path172" />
    </g>
    <g
       transform="translate(654,587)"
       id="g178">
      <path
         d="M 0,-18 18,0 0,18 -18,0 Z"
         fill="#eab308"
         id="path176" />
    </g>
    <g
       transform="translate(203,537)"
       id="g186">
      <path
         d="M 0,-25 25,0 0,25 -25,0 Z"
         fill="#eab308"
         id="path184" />
    </g>
    <g
       transform="translate(752,535)"
       id="g222">
      <path
         d="M 0,-21 21,0 0,21 -21,0 Z"
         fill="#eab308"
         id="path220" />
    </g>
    <g
       transform="translate(24,585)"
       id="g230">
      <path
         d="M 0,-30 30,0 0,30 -30,0 Z"
         fill="#eab308"
         id="path228" />
    </g>
    <g
       transform="translate(106,532)"
       id="g234">
      <path
         d="M 0,-33 33,0 0,33 -33,0 Z"
         fill="#eab308"
         id="path232" />
    </g>
    <g
       transform="translate(845,161)"
       id="g238">
      <path
         d="M 0,-27 27,0 0,27 -27,0 Z"
         fill="#eab308"
         id="path236" />
    </g>
    <g
       transform="translate(387,569)"
       id="g246">
      <path
         d="M 0,-33 33,0 0,33 -33,0 Z"
         fill="#eab308"
         id="path244" />
    </g>
    <g
       transform="translate(244,596)"
       id="g250">
      <path
         d="M 0,-33 33,0 0,33 -33,0 Z"
         fill="#eab308"
         id="path248" />
    </g>
    <g
       transform="translate(890,230)"
       id="g258">
      <path
         d="M 0,-21 21,0 0,21 -21,0 Z"
         fill="#eab308"
         id="path256" />
    </g>
    <g
       transform="translate(613,404)"
       id="g266">
      <path
         d="M 0,-20 20,0 0,20 -20,0 Z"
         fill="#eab308"
         id="path264" />
    </g>
    <g
       transform="translate(727,410)"
       id="g270">
      <path
         d="M 0,-33 33,0 0,33 -33,0 Z"
         fill="#eab308"
         id="path268" />
    </g>
    <g
       transform="translate(899,74)"
       id="g274">
      <path
         d="M 0,-17 17,0 0,17 -17,0 Z"
         fill="#eab308"
         id="path272" />
    </g>
    <g
       transform="translate(794,368)"
       id="g286">
      <path
         d="M 0,-18 18,0 0,18 -18,0 Z"
         fill="#eab308"
         id="path284" />
    </g>
    <g
       transform="translate(387,479)"
       id="g290">
      <path
         d="M 0,-26 26,0 0,26 -26,0 Z"
         fill="#eab308"
         id="path288" />
    </g>
    <g
       transform="translate(160,594)"
       id="g294">
      <path
         d="M 0,-24 24,0 0,24 -24,0 Z"
         fill="#eab308"
         id="path292" />
    </g>
    <g
       transform="translate(464,597)"
       id="g306">
      <path
         d="M 0,-29 29,0 0,29 -29,0 Z"
         fill="#eab308"
         id="path304" />
    </g>
    <g
       transform="translate(582,78)"
       id="g318" />
    <g
       transform="translate(898,597)"
       id="g322">
      <path
         d="M 0,-30 30,0 0,30 -30,0 Z"
         fill="#eab308"
         id="path320" />
    </g>
    <g
       transform="translate(893,4)"
       id="g330">
      <path
         d="M 0,-19 19,0 0,19 -19,0 Z"
         fill="#eab308"
         id="path328" />
    </g>
  </g>
</svg>
