<svg id="visual" viewBox="0 0 900 600" width="900" height="600" xmlns="http://www.w3.org/2000/svg" xmlns:xlink="http://www.w3.org/1999/xlink" version="1.1"><path d="M0 241L75 250L150 262L225 255L300 305L375 257L450 296L525 273L600 258L675 272L750 272L825 328L900 306L900 601L825 601L750 601L675 601L600 601L525 601L450 601L375 601L300 601L225 601L150 601L75 601L0 601Z" fill="#fde047"></path><path d="M0 269L75 316L150 332L225 334L300 344L375 291L450 296L525 334L600 329L675 283L750 280L825 346L900 354L900 601L825 601L750 601L675 601L600 601L525 601L450 601L375 601L300 601L225 601L150 601L75 601L0 601Z" fill="#f8d640"></path><path d="M0 344L75 368L150 321L225 368L300 307L375 349L450 307L525 368L600 318L675 378L750 375L825 316L900 306L900 601L825 601L750 601L675 601L600 601L525 601L450 601L375 601L300 601L225 601L150 601L75 601L0 601Z" fill="#f3cc39"></path><path d="M0 367L75 339L150 360L225 394L300 342L375 371L450 378L525 393L600 359L675 366L750 338L825 385L900 358L900 601L825 601L750 601L675 601L600 601L525 601L450 601L375 601L300 601L225 601L150 601L75 601L0 601Z" fill="#edc231"></path><path d="M0 393L75 404L150 374L225 388L300 411L375 410L450 392L525 418L600 392L675 400L750 404L825 382L900 387L900 601L825 601L750 601L675 601L600 601L525 601L450 601L375 601L300 601L225 601L150 601L75 601L0 601Z" fill="#e8b92a"></path><path d="M0 441L75 423L150 423L225 419L300 462L375 420L450 453L525 449L600 445L675 414L750 408L825 406L900 409L900 601L825 601L750 601L675 601L600 601L525 601L450 601L375 601L300 601L225 601L150 601L75 601L0 601Z" fill="#e2af24"></path><path d="M0 448L75 479L150 442L225 468L300 477L375 476L450 445L525 463L600 441L675 478L750 444L825 480L900 449L900 601L825 601L750 601L675 601L600 601L525 601L450 601L375 601L300 601L225 601L150 601L75 601L0 601Z" fill="#dca61d"></path><path d="M0 497L75 508L150 475L225 497L300 513L375 491L450 483L525 506L600 491L675 489L750 511L825 481L900 491L900 601L825 601L750 601L675 601L600 601L525 601L450 601L375 601L300 601L225 601L150 601L75 601L0 601Z" fill="#d69c15"></path><path d="M0 527L75 528L150 510L225 528L300 516L375 534L450 532L525 510L600 513L675 511L750 513L825 509L900 522L900 601L825 601L750 601L675 601L600 601L525 601L450 601L375 601L300 601L225 601L150 601L75 601L0 601Z" fill="#d0930d"></path><path d="M0 551L75 544L150 547L225 564L300 556L375 558L450 543L525 562L600 556L675 546L750 543L825 559L900 548L900 601L825 601L750 601L675 601L600 601L525 601L450 601L375 601L300 601L225 601L150 601L75 601L0 601Z" fill="#ca8a04"></path></svg>