<svg id="visual" viewBox="0 0 900 600" width="900" height="600" xmlns="http://www.w3.org/2000/svg" xmlns:xlink="http://www.w3.org/1999/xlink" version="1.1"><g stroke-width="1" stroke-linejoin="bevel"><path d="M431.1 328L476.9 270L409.1 251Z" fill="#ffffff" stroke="#ffffff"></path><path d="M476.9 270L491.9 214L409.1 251Z" fill="#ffffff" stroke="#ffffff"></path><path d="M431.1 328L508.9 345L476.9 270Z" fill="#ffe0a8" stroke="#ffe0a8"></path><path d="M476.9 270L593.7 244L491.9 214Z" fill="#fff7e9" stroke="#fff7e9"></path><path d="M320.3 352L406.1 399L431.1 328Z" fill="#f7c967" stroke="#f7c967"></path><path d="M431.1 328L406.1 399L508.9 345Z" fill="#fdd893" stroke="#fdd893"></path><path d="M379.1 169L336.3 208L409.1 251Z" fill="#eab308" stroke="#eab308"></path><path d="M409.1 251L307.3 301L431.1 328Z" fill="#fad07d" stroke="#fad07d"></path><path d="M491.9 214L379.1 169L409.1 251Z" fill="#f3c24f" stroke="#f3c24f"></path><path d="M336.3 208L307.3 301L409.1 251Z" fill="#ffe0a8" stroke="#ffe0a8"></path><path d="M307.3 301L320.3 352L431.1 328Z" fill="#ffe7be" stroke="#ffe7be"></path><path d="M508.9 345L584.7 293L476.9 270Z" fill="#ffe0a8" stroke="#ffe0a8"></path><path d="M379.1 169L343.3 160L336.3 208Z" fill="#ffe7be" stroke="#ffe7be"></path><path d="M336.3 208L264.5 272L307.3 301Z" fill="#fdd893" stroke="#fdd893"></path><path d="M561.7 164L462.9 130L491.9 214Z" fill="#ffe7be" stroke="#ffe7be"></path><path d="M491.9 214L462.9 130L379.1 169Z" fill="#fdd893" stroke="#fdd893"></path><path d="M379.1 169L397.1 83L343.3 160Z" fill="#ffe7be" stroke="#ffe7be"></path><path d="M558.7 469L583.7 348L508.9 345Z" fill="#f3c24f" stroke="#f3c24f"></path><path d="M508.9 345L583.7 348L584.7 293Z" fill="#ffe0a8" stroke="#ffe0a8"></path><path d="M629.5 276L593.7 244L584.7 293Z" fill="#fad07d" stroke="#fad07d"></path><path d="M584.7 293L593.7 244L476.9 270Z" fill="#fad07d" stroke="#fad07d"></path><path d="M235.5 198L264.5 272L336.3 208Z" fill="#ffe0a8" stroke="#ffe0a8"></path><path d="M307.3 301L227.5 393L320.3 352Z" fill="#ffe0a8" stroke="#ffe0a8"></path><path d="M593.7 244L561.7 164L491.9 214Z" fill="#fdd893" stroke="#fdd893"></path><path d="M403.1 472L473.9 461L406.1 399Z" fill="#ffefd3" stroke="#ffefd3"></path><path d="M406.1 399L473.9 461L508.9 345Z" fill="#ffe0a8" stroke="#ffe0a8"></path><path d="M304.3 449L406.1 399L320.3 352Z" fill="#f3c24f" stroke="#f3c24f"></path><path d="M304.3 449L403.1 472L406.1 399Z" fill="#fad07d" stroke="#fad07d"></path><path d="M583.7 348L629.5 276L584.7 293Z" fill="#fad07d" stroke="#fad07d"></path><path d="M593.7 244L648.5 202L561.7 164Z" fill="#ffffff" stroke="#ffffff"></path><path d="M467.9 77L397.1 83L462.9 130Z" fill="#eab308" stroke="#eab308"></path><path d="M462.9 130L397.1 83L379.1 169Z" fill="#efba35" stroke="#efba35"></path><path d="M265.5 138L235.5 198L336.3 208Z" fill="#ffe7be" stroke="#ffe7be"></path><path d="M585.7 95L467.9 77L462.9 130Z" fill="#ffe0a8" stroke="#ffe0a8"></path><path d="M227.5 393L304.3 449L320.3 352Z" fill="#ffe7be" stroke="#ffe7be"></path><path d="M558.7 469L627.5 388L583.7 348Z" fill="#f7c967" stroke="#f7c967"></path><path d="M583.7 348L627.5 388L629.5 276Z" fill="#ffe7be" stroke="#ffe7be"></path><path d="M265.5 138L336.3 208L343.3 160Z" fill="#efba35" stroke="#efba35"></path><path d="M264.5 272L227.5 393L307.3 301Z" fill="#fad07d" stroke="#fad07d"></path><path d="M479.9 545L558.7 469L473.9 461Z" fill="#fff7e9" stroke="#fff7e9"></path><path d="M473.9 461L558.7 469L508.9 345Z" fill="#eab308" stroke="#eab308"></path><path d="M262.5 102L265.5 138L343.3 160Z" fill="#ffe7be" stroke="#ffe7be"></path><path d="M629.5 276L648.5 202L593.7 244Z" fill="#eab308" stroke="#eab308"></path><path d="M561.7 164L585.7 95L462.9 130Z" fill="#fad07d" stroke="#fad07d"></path><path d="M727.4 220L648.5 202L629.5 276Z" fill="#efba35" stroke="#efba35"></path><path d="M192.6 297L227.5 393L264.5 272Z" fill="#eab308" stroke="#eab308"></path><path d="M243.5 533L345.3 503L304.3 449Z" fill="#ffffff" stroke="#ffffff"></path><path d="M304.3 449L345.3 503L403.1 472Z" fill="#efba35" stroke="#efba35"></path><path d="M403.1 472L479.9 545L473.9 461Z" fill="#eab308" stroke="#eab308"></path><path d="M397.1 83L342.3 68L343.3 160Z" fill="#ffffff" stroke="#ffffff"></path><path d="M422.1 0L342.3 68L397.1 83Z" fill="#fad07d" stroke="#fad07d"></path><path d="M634.5 140L585.7 95L561.7 164Z" fill="#efba35" stroke="#efba35"></path><path d="M173.6 253L192.6 297L264.5 272Z" fill="#ffe0a8" stroke="#ffe0a8"></path><path d="M648.5 202L634.5 140L561.7 164Z" fill="#fdd893" stroke="#fdd893"></path><path d="M345.3 503L394.1 531L403.1 472Z" fill="#fad07d" stroke="#fad07d"></path><path d="M342.3 68L262.5 102L343.3 160Z" fill="#fdd893" stroke="#fdd893"></path><path d="M265.5 138L155.6 163L235.5 198Z" fill="#fff7e9" stroke="#fff7e9"></path><path d="M235.5 198L173.6 253L264.5 272Z" fill="#ffe7be" stroke="#ffe7be"></path><path d="M394.1 531L479.9 545L403.1 472Z" fill="#ffe7be" stroke="#ffe7be"></path><path d="M155.6 163L173.6 253L235.5 198Z" fill="#efba35" stroke="#efba35"></path><path d="M136.6 457L238.5 467L227.5 393Z" fill="#eab308" stroke="#eab308"></path><path d="M227.5 393L238.5 467L304.3 449Z" fill="#efba35" stroke="#efba35"></path><path d="M329.3 600L397.1 600L394.1 531Z" fill="#ffffff" stroke="#ffffff"></path><path d="M159.6 359L227.5 393L192.6 297Z" fill="#ffffff" stroke="#ffffff"></path><path d="M491.9 0L422.1 0L467.9 77Z" fill="#f3c24f" stroke="#f3c24f"></path><path d="M467.9 77L422.1 0L397.1 83Z" fill="#fdd893" stroke="#fdd893"></path><path d="M342.3 68L253.5 0L262.5 102Z" fill="#eab308" stroke="#eab308"></path><path d="M89.8 286L159.6 359L192.6 297Z" fill="#ffffff" stroke="#ffffff"></path><path d="M579.7 0L491.9 0L585.7 95Z" fill="#ffefd3" stroke="#ffefd3"></path><path d="M585.7 95L491.9 0L467.9 77Z" fill="#f7c967" stroke="#f7c967"></path><path d="M748.4 388L732.4 304L627.5 388Z" fill="#fdd893" stroke="#fdd893"></path><path d="M627.5 388L732.4 304L629.5 276Z" fill="#efba35" stroke="#efba35"></path><path d="M648.5 202L764.4 165L634.5 140Z" fill="#ffefd3" stroke="#ffefd3"></path><path d="M673.5 475L627.5 388L558.7 469Z" fill="#ffefd3" stroke="#ffefd3"></path><path d="M732.4 304L727.4 220L629.5 276Z" fill="#efba35" stroke="#efba35"></path><path d="M634.5 140L648.5 57L585.7 95Z" fill="#efba35" stroke="#efba35"></path><path d="M673.5 509L673.5 475L558.7 469Z" fill="#ffe7be" stroke="#ffe7be"></path><path d="M422.1 0L327.3 0L342.3 68Z" fill="#eab308" stroke="#eab308"></path><path d="M167.6 95L155.6 163L265.5 138Z" fill="#ffefd3" stroke="#ffefd3"></path><path d="M173.6 253L89.8 286L192.6 297Z" fill="#ffe7be" stroke="#ffe7be"></path><path d="M167.6 95L265.5 138L262.5 102Z" fill="#fad07d" stroke="#fad07d"></path><path d="M479.9 545L589.7 550L558.7 469Z" fill="#ffefd3" stroke="#ffefd3"></path><path d="M761.4 92L648.5 57L634.5 140Z" fill="#fdd893" stroke="#fdd893"></path><path d="M174.6 545L243.5 533L238.5 467Z" fill="#fdd893" stroke="#fdd893"></path><path d="M238.5 467L243.5 533L304.3 449Z" fill="#ffffff" stroke="#ffffff"></path><path d="M394.1 531L397.1 600L479.9 545Z" fill="#ffe7be" stroke="#ffe7be"></path><path d="M329.3 600L394.1 531L345.3 503Z" fill="#fff7e9" stroke="#fff7e9"></path><path d="M479.9 545L518.9 600L589.7 550Z" fill="#ffefd3" stroke="#ffefd3"></path><path d="M648.5 57L579.7 0L585.7 95Z" fill="#eab308" stroke="#eab308"></path><path d="M397.1 600L518.9 600L479.9 545Z" fill="#fdd893" stroke="#fdd893"></path><path d="M589.7 550L673.5 509L558.7 469Z" fill="#fad07d" stroke="#fad07d"></path><path d="M673.5 475L748.4 388L627.5 388Z" fill="#fdd893" stroke="#fdd893"></path><path d="M677.5 600L673.5 509L589.7 550Z" fill="#fdd893" stroke="#fdd893"></path><path d="M737.4 460L748.4 388L673.5 475Z" fill="#fff7e9" stroke="#fff7e9"></path><path d="M835.2 254L764.4 165L727.4 220Z" fill="#fdd893" stroke="#fdd893"></path><path d="M253.5 0L167.6 95L262.5 102Z" fill="#ffe7be" stroke="#ffe7be"></path><path d="M243.5 533L329.3 600L345.3 503Z" fill="#efba35" stroke="#efba35"></path><path d="M327.3 0L253.5 0L342.3 68Z" fill="#efba35" stroke="#efba35"></path><path d="M51.8 150L98.8 242L155.6 163Z" fill="#ffe7be" stroke="#ffe7be"></path><path d="M155.6 163L98.8 242L173.6 253Z" fill="#fad07d" stroke="#fad07d"></path><path d="M159.6 359L136.6 457L227.5 393Z" fill="#ffe0a8" stroke="#ffe0a8"></path><path d="M91.8 351L136.6 457L159.6 359Z" fill="#ffe0a8" stroke="#ffe0a8"></path><path d="M243.5 533L244.5 600L329.3 600Z" fill="#ffefd3" stroke="#ffefd3"></path><path d="M98.8 242L89.8 286L173.6 253Z" fill="#fff7e9" stroke="#fff7e9"></path><path d="M673.5 509L737.4 460L673.5 475Z" fill="#ffe0a8" stroke="#ffe0a8"></path><path d="M727.4 220L764.4 165L648.5 202Z" fill="#ffffff" stroke="#ffffff"></path><path d="M835.2 254L727.4 220L732.4 304Z" fill="#fad07d" stroke="#fad07d"></path><path d="M89.8 286L91.8 351L159.6 359Z" fill="#fdd893" stroke="#fdd893"></path><path d="M518.9 600L592.7 600L589.7 550Z" fill="#fdd893" stroke="#fdd893"></path><path d="M673.5 509L761.4 525L737.4 460Z" fill="#ffefd3" stroke="#ffefd3"></path><path d="M648.5 57L656.5 0L579.7 0Z" fill="#fad07d" stroke="#fad07d"></path><path d="M765.4 0L656.5 0L648.5 57Z" fill="#efba35" stroke="#efba35"></path><path d="M174.6 545L244.5 600L243.5 533Z" fill="#fff7e9" stroke="#fff7e9"></path><path d="M136.6 457L174.6 545L238.5 467Z" fill="#f7c967" stroke="#f7c967"></path><path d="M91.8 351L108.8 463L136.6 457Z" fill="#f7c967" stroke="#f7c967"></path><path d="M136.6 457L108.8 463L174.6 545Z" fill="#efba35" stroke="#efba35"></path><path d="M764.4 165L761.4 92L634.5 140Z" fill="#ffffff" stroke="#ffffff"></path><path d="M253.5 0L164.6 0L167.6 95Z" fill="#fdd893" stroke="#fdd893"></path><path d="M72.8 73L51.8 150L155.6 163Z" fill="#fdd893" stroke="#fdd893"></path><path d="M592.7 600L677.5 600L589.7 550Z" fill="#ffe0a8" stroke="#ffe0a8"></path><path d="M837.2 292L732.4 304L845.2 347Z" fill="#ffe0a8" stroke="#ffe0a8"></path><path d="M837.2 292L835.2 254L732.4 304Z" fill="#efba35" stroke="#efba35"></path><path d="M764.4 165L827.2 145L761.4 92Z" fill="#f7c967" stroke="#f7c967"></path><path d="M732.4 304L748.4 388L845.2 347Z" fill="#fff7e9" stroke="#fff7e9"></path><path d="M845.2 347L748.4 388L832.2 436Z" fill="#fff7e9" stroke="#fff7e9"></path><path d="M677.5 600L761.4 525L673.5 509Z" fill="#ffe7be" stroke="#ffe7be"></path><path d="M72.8 73L155.6 163L167.6 95Z" fill="#ffefd3" stroke="#ffefd3"></path><path d="M0 202L0 315L89.8 286Z" fill="#eab308" stroke="#eab308"></path><path d="M89.8 286L0 315L91.8 351Z" fill="#fff7e9" stroke="#fff7e9"></path><path d="M91.8 351L0 395L108.8 463Z" fill="#f7c967" stroke="#f7c967"></path><path d="M832.2 436L748.4 388L737.4 460Z" fill="#efba35" stroke="#efba35"></path><path d="M837.2 292L900 284L835.2 254Z" fill="#efba35" stroke="#efba35"></path><path d="M79.8 600L166.6 600L174.6 545Z" fill="#ffe0a8" stroke="#ffe0a8"></path><path d="M174.6 545L166.6 600L244.5 600Z" fill="#ffe7be" stroke="#ffe7be"></path><path d="M828.2 67L827.2 145L900 80Z" fill="#ffe7be" stroke="#ffe7be"></path><path d="M835.2 254L827.2 145L764.4 165Z" fill="#ffe0a8" stroke="#ffe0a8"></path><path d="M761.4 92L765.4 0L648.5 57Z" fill="#efba35" stroke="#efba35"></path><path d="M164.6 0L72.8 73L167.6 95Z" fill="#f3c24f" stroke="#f3c24f"></path><path d="M761.4 525L832.2 436L737.4 460Z" fill="#eab308" stroke="#eab308"></path><path d="M828.2 67L765.4 0L761.4 92Z" fill="#f3c24f" stroke="#f3c24f"></path><path d="M0 202L89.8 286L98.8 242Z" fill="#fdd893" stroke="#fdd893"></path><path d="M108.8 463L67.8 546L174.6 545Z" fill="#fad07d" stroke="#fad07d"></path><path d="M0 202L98.8 242L51.8 150Z" fill="#eab308" stroke="#eab308"></path><path d="M0 170L0 202L51.8 150Z" fill="#fad07d" stroke="#fad07d"></path><path d="M900 211L827.2 145L835.2 254Z" fill="#eab308" stroke="#eab308"></path><path d="M827.2 145L828.2 67L761.4 92Z" fill="#f3c24f" stroke="#f3c24f"></path><path d="M0 315L0 395L91.8 351Z" fill="#f3c24f" stroke="#f3c24f"></path><path d="M0 64L0 170L51.8 150Z" fill="#ffe0a8" stroke="#ffe0a8"></path><path d="M677.5 600L759.4 600L761.4 525Z" fill="#ffe7be" stroke="#ffe7be"></path><path d="M761.4 525L847.2 513L832.2 436Z" fill="#eab308" stroke="#eab308"></path><path d="M0 497L67.8 546L108.8 463Z" fill="#fdd893" stroke="#fdd893"></path><path d="M900 359L900 284L845.2 347Z" fill="#eab308" stroke="#eab308"></path><path d="M845.2 347L900 284L837.2 292Z" fill="#ffefd3" stroke="#ffefd3"></path><path d="M900 359L845.2 347L832.2 436Z" fill="#fff7e9" stroke="#fff7e9"></path><path d="M164.6 0L68.8 0L72.8 73Z" fill="#ffffff" stroke="#ffffff"></path><path d="M72.8 73L0 64L51.8 150Z" fill="#f3c24f" stroke="#f3c24f"></path><path d="M900 284L900 211L835.2 254Z" fill="#fad07d" stroke="#fad07d"></path><path d="M900 435L900 359L832.2 436Z" fill="#ffffff" stroke="#ffffff"></path><path d="M846.2 600L847.2 513L761.4 525Z" fill="#f7c967" stroke="#f7c967"></path><path d="M0 600L79.8 600L67.8 546Z" fill="#eab308" stroke="#eab308"></path><path d="M67.8 546L79.8 600L174.6 545Z" fill="#fad07d" stroke="#fad07d"></path><path d="M0 395L0 475L108.8 463Z" fill="#fdd893" stroke="#fdd893"></path><path d="M900 211L900 177L827.2 145Z" fill="#fdd893" stroke="#fdd893"></path><path d="M900 0L821.2 0L828.2 67Z" fill="#eab308" stroke="#eab308"></path><path d="M828.2 67L821.2 0L765.4 0Z" fill="#fdd893" stroke="#fdd893"></path><path d="M0 475L0 497L108.8 463Z" fill="#f3c24f" stroke="#f3c24f"></path><path d="M900 495L900 435L832.2 436Z" fill="#ffffff" stroke="#ffffff"></path><path d="M68.8 0L0 64L72.8 73Z" fill="#eab308" stroke="#eab308"></path><path d="M900 177L900 80L827.2 145Z" fill="#ffefd3" stroke="#ffefd3"></path><path d="M900 600L900 495L847.2 513Z" fill="#fad07d" stroke="#fad07d"></path><path d="M847.2 513L900 495L832.2 436Z" fill="#ffffff" stroke="#ffffff"></path><path d="M759.4 600L846.2 600L761.4 525Z" fill="#fad07d" stroke="#fad07d"></path><path d="M68.8 0L0 0L0 64Z" fill="#ffffff" stroke="#ffffff"></path><path d="M0 497L0 600L67.8 546Z" fill="#f3c24f" stroke="#f3c24f"></path><path d="M900 80L900 0L828.2 67Z" fill="#ffe0a8" stroke="#ffe0a8"></path><path d="M846.2 600L900 600L847.2 513Z" fill="#fff7e9" stroke="#fff7e9"></path></g></svg>